/* XPM */
static char *e2a545ded2ce457bfdb288b02a52ef70tjktMhjr8WCvPZ1y[] = {
/* columns rows colors chars-per-pixel */
"64 64 177 2 ",
"   c #2B2724",
".  c #2D2B26",
"X  c #2E2D2B",
"o  c #332E27",
"O  c #322E2A",
"+  c #2F312F",
"@  c #34322D",
"#  c #3A342E",
"$  c #2E2F31",
"%  c #2F3331",
"&  c #353532",
"*  c #3A3632",
"=  c #3C3A35",
"-  c #393738",
";  c #363A39",
":  c #3D3C39",
">  c #403730",
",  c #433C36",
"<  c #423D39",
"1  c #3F403A",
"2  c #45413C",
"3  c #4B443D",
"4  c #4C483F",
"5  c #3B3F40",
"6  c #464541",
"7  c #4B4642",
"8  c #4D4A44",
"9  c #4D4C49",
"0  c #514742",
"q  c #524B45",
"w  c #594F46",
"e  c #534E4A",
"r  c #55514C",
"t  c #5B544D",
"y  c #565651",
"u  c #5B5651",
"i  c #545857",
"p  c #5D5954",
"a  c #5E5C58",
"s  c #61544B",
"d  c #615650",
"f  c #625B55",
"g  c #695E55",
"h  c #645E59",
"j  c #636057",
"k  c #65625B",
"l  c #6A645C",
"z  c #70675E",
"x  c #666560",
"c  c #6B6661",
"v  c #6D6963",
"b  c #6F6B68",
"n  c #706561",
"m  c #726B64",
"M  c #796F66",
"N  c #736D69",
"B  c #786F68",
"V  c #767067",
"C  c #74716B",
"Z  c #7B736C",
"A  c #757472",
"S  c #7C7671",
"D  c #7E7973",
"F  c #7E7D7B",
"G  c #80756D",
"H  c #81786E",
"J  c #817772",
"K  c #837B74",
"L  c #897E76",
"P  c #837E79",
"I  c #8B7E78",
"U  c #848077",
"Y  c #8A8177",
"T  c #87807A",
"R  c #8B837C",
"E  c #92867D",
"W  c #92887F",
"Q  c #858180",
"!  c #8C8681",
"~  c #8E8882",
"^  c #8D8B8C",
"/  c #918781",
"(  c #948B84",
")  c #9A8E85",
"_  c #948E89",
"`  c #988F88",
"'  c #9D9185",
"]  c #959188",
"[  c #9C938B",
"{  c #9D9792",
"}  c #9F9891",
"|  c #A2958C",
" . c #A5998F",
".. c #AA9A8E",
"X. c #A19790",
"o. c #A49B93",
"O. c #AB9D94",
"+. c #A49F99",
"@. c #AA9F9A",
"#. c #B09F96",
"$. c #B09F98",
"%. c #A6A097",
"&. c #ADA196",
"*. c #A7A098",
"=. c #ADA39A",
"-. c #B2A296",
";. c #B3A59C",
":. c #B8A79C",
">. c #B5A99E",
",. c #BAAA9E",
"<. c #ACA2A0",
"1. c #AFA8A2",
"2. c #B2A7A0",
"3. c #B8A7A0",
"4. c #B5AAA2",
"5. c #BBADA3",
"6. c #B7AEA9",
"7. c #B9AFA9",
"8. c #B6B0A4",
"9. c #BCB0A2",
"0. c #BAB0A7",
"q. c #BDB1A5",
"w. c #BEB0A5",
"e. c #BDB0A7",
"r. c #BFB1A6",
"t. c #BEB0A7",
"y. c #BEB1A6",
"u. c #BFB2A9",
"i. c #BEB6AB",
"p. c #BFB2AC",
"a. c #BEB2A9",
"s. c #BDB6B0",
"d. c #BFB8B2",
"f. c #C0AEA2",
"g. c #C1AFA4",
"h. c #C0AFA8",
"j. c #C0B0A3",
"k. c #C1B0A6",
"l. c #C2B1A7",
"z. c #C0B2A7",
"x. c #C4B2A6",
"c. c #C2B4A7",
"v. c #C4B4A5",
"b. c #C1B2A6",
"n. c #C8B7A7",
"m. c #C1B3A9",
"M. c #C0B3AA",
"N. c #C2B4A9",
"B. c #C1B4AB",
"V. c #C3B5AA",
"C. c #C2B6AA",
"Z. c #C6B5AB",
"A. c #C5B7AA",
"S. c #C6B4A8",
"D. c #C1B4AC",
"F. c #C5B7AD",
"G. c #C4B7AE",
"H. c #C7B6AE",
"J. c #C2B5AA",
"K. c #C8B6A8",
"L. c #C9B7AA",
"P. c #C4B8AC",
"I. c #C5B9AE",
"U. c #C8BAAF",
"Y. c #C8BAAE",
"T. c #C2B7B0",
"R. c #C7B8B1",
"E. c #C6BAB1",
"W. c #C9BBB0",
"Q. c #CABCB1",
"!. c #CCBEB3",
"~. c #CEBDB5",
"^. c #CABCB2",
"/. c #CEC0B5",
"(. c #CCC2B7",
"). c #CCC2B9",
"_. c #D0C2B7",
/* pixels */
"E 5.-.;.>.4.-.;.=.>.o.>.;.>.>.;.4.R e 4.5.v.x.~.~.!.Y.I.V.9.5.V.9.w.Z.-.5.P.L = J p.;.:.$.3.;.,.=.;.=.;.3.>.3.7.5.3.;...,.;.=.r ",
"Z O.>.3.O.;.5.4.>.-.O.=.=.>.>.=.6.S 3 5.V.L.9.I./.V.5.k.V.k.w.k.j.5.>.O.5.V.R @ m I.;.;.3.3.O.>.=.;.5.>. .=.5.;.3.4.3.>.-.6.*.8 ",
"j } 4.4.w.w.7.4.7.2.=.=.*.=.;.2.{ h = 2.H.L.,.w.,... .>.M.c.5.5.k.V.5.5.c.9.[ 2 f =.:.&.o.=.5.;.w.&.&.4.;.;.3.3.2.a.w.Z.5.a.Q # ",
"7 R X.[ [ / R ! S N j t 4 8 4 8 6 & < 4.H.f.5.i. .|  .-.w.V.V.k.,.M.a.5.:.&.] 2 2 _ 0.w.7.=.*.&.+.=.6.=.2.=.=. .} X._ / ( T r @ ",
"& * * * > = - & + 2 8 f v Z Z C 9 = & [ 5.,.>.=.&.-.=.-.3.7.D.M.k.h.M.a.9.5.[ 7 ; e z z h w 2 4 8 q y e 7 3 , < > 2 = * < - . = ",
"_ ! K Z d , X - t / +.w.I.W.i.6.2.U < K J.0.5.3.;.;.>.=.-.>.4.>.5.>.4.>.,.9.] 6 X q T ( / ] ] E G 8 . . - r t h c N Z P D P ! ( ",
"7.W.V.Z.4.! 6 $ l ;.5.,.f.5.V.J.w.@.8 v 6.=.>.4.;.>.>.4.2.-.=.=.;.>.2.;.;.3.] 3 2 +./.V.J.T.V.Y.(.*.l , P d.i.a.W.J.T.P.0.V.E.i.",
",.v.,.v.h.7.N X l 4.,.9.v.q.q.=.,.,.2 u ;.;.4.-.2.;.;.;.=.O.O.3.:.5.;.-.>.;.` < M c.,.:.5.M.j.,.>.V.Y > o.J.3.V.5.V.,.9.9.j.,.f.",
"w.w.w.V.V.W.Z X Z 7.| ;.n.3.I.>.4.=.* u +.O.;.4.2.3.4.-.O.O.O.>.g.5.;.;.>.;.` < E Z.,.9.q.,.v.>.4.E.C < [ w.,.c.k.w.5.w.c.w.w.w.",
"5.w.a.5.k.!.I O H V.4.k.Y.5.V.w.W./ * c +.>.;.&.3.-.=.3.;.@.>.h.g.>.O.O.=.2.{ 6 L Z.k.w.V.i.q.9.7.E.B w 4.n.j.>.O.5.V.5.,.w.V.w.",
";.5.a.5.j.Y.P O K 6.;.>.7.5.7.7.5./ * B 5.;.' ..=.;.7.5.7.g.h.7.4.;.;.2.>.3.} 7 Z 0.3.V.i.;.=.5.,.5.g u T.c.5.w.,.w.c.5.k.I.i.;.",
",.7.V.V.k.Z.T & / 5.+.O.>.>.;.-.3.E # K ;.O.&.O.>.7.a.3.3.3.>.O.-.=.4.;.o. .] r n V.;.=.&.;.=.3.;.5.m Z !.>.>.w.5.c.I.Z.V.9.5.,.",
",.5.4.>.;.5.R & R >.O.&.,.3.5.>.a./ O k *.4.>.=.5.:.;.$.-.-.>.5.3.-.>.,.4.;.] w l 5.O.-.,.>.;.O.&.6.m K 3.>.>.2.>.>.3.7.7.4.3.w.",
";.;.;.;.&.3.R & L 5.4.w.3.-.-.&.=.P O : K o.X.a.5.5.3.5.5.>.>.;.3.;.;.;.;.[ Z : z 7.>.3.>.4.5.4.4.=.h E >.-.O.=.;.;.=.;.;.,.4.;.",
">.>.;.>.>.a./ & l ] =.=.=.O.=.2.1.b : + = t c Z S K T R / ] ] / T ! R C f 7 : + 8 [ =.+.] { W Z h e O ! 7.-.*.2.-.4.3.>.=.=.;.;.",
"5.;.o.>.-.2.T & @ t k u r t 8 y r & % : 6 3 8 8 9 2 = = & & : 7 e 8 2 & : = : ; = 1 9 y 8 < . & & & & ! >.;.>.2.;.;.;.;.>.>.4.;.",
"@.| =.>.&.=.D < D Y ( _ R D C N l l G ) O.=.,.0.>.| ( 3 & q ] >.7.4.O.O.;.;.o.g + p o.&.O./ W ( X.k . A 0.=.4.2.=.2.O.;.=.*.5.;.",
"-.O.-.>.>.0.Z 3 :.j.n.n.n.V.j.f.4.w.5.>.3.V.q.5.Y.5.5.K O P T.c.w.J.M.V.5.5.V.' 2 L ~.w.k.I.P.,.a.=.> 6 =.4.-.3.3.O.| &.,.,.4.;.",
";.4.;.;.>.=.u k R.3.-.>.V.w.5.9.7.V.5.;.,.v.C.I.:.x.!.) O Q ^.,.V.I.a.V.;.-.k.>.: T I.5.5.a.>. .-.l.u o R O.>.;.;.;.;.>.>.;.;.;.",
"=.2.>.;.0._ 2 Q 7.@.X.;.0.0.4.i.,.5.5.h.l.5.>.>.#.;.7.] , P J.O.>.k.V./.V.w.V.>.2 U V.,.M.w.3.5.L.7.v o q Z X.;.=.6.4.;.>.4.=.=.",
"l k v Z K f < ^ :.5.g.3.:.;.;.-.5.4.4.3.>.3.7.;.,.>.=.+.# C I.,.5.w.5.V.w.V.I.9.4 R q.&.>.w.a.V.V.a.~ = . & 2 m K I R R K S m c ",
"; . 2 2 * o & e m J L R (  .=.2.3.=.=.X.( / ` |  .%. .R 2 c i.k.w.V.V.I.w.w.k.>.8 ( P.-.5.a.9.w.9.a.~ * r C r 8 8 q 0 7 , # @ @ ",
"o l %.4.;.[ I v t 8 2 6 7 8 q r w w 6 = < < = , 2 3 4 = @ v ;.>.7.4.,.;.=.;.5.5.8 R Y.v.I.V.q.j.j./.{ , T E.i.=.=.*.O.-.=.{ S 2 ",
"< } E.q.c.V.P.I.P.P.5.-.O.O. .| [ ! r & a F S v x v V v @ P 3.5.>.;.;.;.;.O.;.&.r E I.,.c.V.9.>.-.Y.[ 3 &.w.9.Y.V.c.>.5.Z.!.2.l ",
"8 *.i.>.>.w.w.Z.V.J.J.M.k.V.V.c.V.7.Z 4 *.c.V.V.P.w.k.;.7 I 4.;.;.=.4.=.=.>.;.4.p H I.j.V.w.k.9.c.I.O.s O.,.5.5.0.,.5.w.w.>.a.H ",
"4 ;.W.>.O.0.a.5.-.5.x.V.V.k.9.M.M.J.m g C.5.,.I.4.a.a.a.w c p.;...;.#.-.j.-. .9.p Z Z.k.9.7.9.9.w.!.| w ;.>.7.-.O.>.h.5.;.$.5.L ",
"e =.=.#.>.-.;.O.O.-.>.-.>.>.-.&.=.=.t Z i.9.c.5.O.k.V.E.u 7 } ;.,.V.w.4.5.9.>.| 2 k 0.,.,.7.5.5.5.w.[ 4 +.6.=.a.3.3.w.7.4.5.7.I ",
"2 =.h.>.M.a.4.;.=.7.D.M.0.;.>.4.7.+.= R C.:...v.9.i.q.T.p X < w p k b S N c h < % l 0.;.=.;.;. .;.>.R = A %.Z r k k l l h l m r ",
"= N X.[ | +.X.=.+._ L K S B N D m r O _ J.k.c.Y.k.;.;.a.r : e t y j p r 6 7 8 = + v 5.;.;.;.=. .;.>.P 2 * 2 t f k j k l h y 8 @ ",
"x q 3 0 3 * < 2 o # , q t f r 2 @ @ * S i.V.q.0.,.;.>.i.8 h s.i.M.E.!.w.,.M.5.| - c ;.=.8.>.>.,.-.;.( # O D i.!.M.5.5.M.T.h.3.[ ",
"6.5.O.@.| y & * z R o.*.o.;.;.{ m 2 @ h @.>.k.P.J.w.5.0.q k ).3.k.:.,.v.j.j.,.j.r c >.&.;.8.=.>.,.&.=.8 2 =.w.f.L.V.V.5.;.;.M.V.",
"P.j.Y.x.~.D o F >.-.9.V.w.M.V.,.s.S @ 8 [ 5.;.2.>.5.w.=.q d 5.,.=.P.P.0.V.=.| V.p p ,.O.*.J.;.>.-.4.;.a 8 0.c.,.=.9.v.c.9.9.a.w.",
"4.9.5.S.I.S = X.M.M.5.D.M.3.M.M.Z.S $ 8 ] 9.*.;.>.5.O.=.t y Z.,.j.V.5.g.k.M.H.V.k t 1.2.;.7.Z.=.3.=.4.K q =.i.&.&.w.P.q.9.V.q.,.",
"O.;.5.g.a.S = O.Z.5.3.M.W.M.:.O.3.b X 6 X.-.O.a.5.-.o.4.w w W.5.w.k.a.M.g.3.5.M.B q 4.=.;.3.5.a.&.;.4.K w =.5.,.;.,.5.,.c.C.9.=.",
"3.>.>.,.7.C # ;.M.;.O.-.Z.7.;.X.h.p X e +.-.5.3.3.-.&.a.x w 4.;.;.;.4.;.O.&.;.5.P q ;.=.>.O.-.3.;.4.0.D w &.*.5.4.5.,.>.>.;.>.5.",
";.;.&.-.5.Z 8 @.l.7.=.5.Z.M.g.5.g.u X f =.:.g.4.>.7.4.=.h 6 o.>.;.;.i.5.>.;.;.3.S 3 X.;.=. .3.M.-.;.;.j 3 *.>.4.;.&.*.;.>.>.>.;.",
"3.=.| >.6.a 6 2.M.7.5.Z.Z.5.a.M.k.Z @ p 4.V.-.=.=.=.0.=.e = X.5.;. .;.5.3.;.&.5.v * X.0.@.4.=.;.5.4.4.9 & ( a.;.;.&.&.=.-.;.2.;.",
"5.4.2.a.<.9 : X.E.Z.J.W.M.5.M.M.5.Y & 9 / -.O.=.=.X.X.P 2 & T i.5.5.k.i.w.J.3.o.8 * P 1.=.7.6.1.=.+.} r = v =.;.;.6.6.2.=.=.1.2.",
"s l g w 2 & O J D.5.3.4.O.O.7.3.Z./ - X = 3 3 2 = = > * O . 6 z Z P R T T ! D q ; = * q 7 3 8 3 4 , 2 @ @ 2 S ] ~ D g e 8 r t p ",
"I P D S c i . c 5.;.>.-.| O.3.>.3.! - 6 D | [ ~ Z l v N A A a 3 : = ; 2 8 y r @ & : @ 7 h m Z R Y K k y e : 8 3 8 8 r h l m Z P ",
"3.7.Z.5.J.X.t k 3.;.;.>.;.;.-.;.2._ # ( !.V.Y.Y.P.!.V.0.5.J.I.M.>.&.-.=.=.4.[ d ; ; m  .:.Z.V./.I.!.k.-.X.O.O.&.-.,.k.V.I.Y.I.V.",
"o.-.5.Z.J.i.l r 4.;.;.;.;.4.4.;.a.E < =.a.5.>.>.V.9.9.w.V.a.w.a.V.5.V.P.w.w.4.' 6 8 [ a.g.M.&.O.;.w.I.Y.W.W.W.a.5.&.-.5.I.w.-.O.",
"5.Y.5.V.J.a.h p ;.>.4.4.4.4.;.=.3.( 3 =.k.f...:.k.c.k.5.w.k.c.w.,.-.>.v.V.V.V.V.l 7 +.Y.f.:.=.-.P.n.Y.V.M.l.V.V.5.5.w.M.V.V.V.V.",
"w.M.f.:.a.2.t y ;.;.4.>.;.-.4.3.7.( # / 5.9.-.9.9.V.i.5.>.5.5.3.-...O.;.3.4.>.;.D 3 @.W.5.5.4.M.V.V.k.5.5.5.9.w.5.9.9.,.5.V.V.5.",
"3.;.5.-.=.6.d r ;.;.;.;.O.O.=.>.4./ < ! ;.>.=.>.-.-.>.3.>.=.*.;.4.3.7.,.3.>.>.4.P , [ 4.-.,.>.;.;.;.>.-.&...O.O.>.;.>.5.5.;.;.;.",
"O.O.;.>.@.=.e k 4.;.;.=.O.@.-.;.2.R - C 1.;.;.4.=.-.;.5.5.>.4.4.4.2.4.;.;.=.;.4.N # Y %.;.;.2.=.;.;.=.;.=.;.;.,.;.3.7.7.3.5.7.i.",
"O.3.;.5.a.] 6 C =.;.4.2.;.2.5.2.=.D @ 8 ! 4.>.a.3.a.0.4.4.4.;.%.;.=.=.2.>.6.4.;.x : T =.8.8.4.8.4.2.2.6.4.;.;.>.4.5.;.=.-.7.5.&.",
"2.;.| W / h O 9 M R | [ E L z t 0 6 & & * m K R W Y L L Z j w 4 2 r a l m G H z 2 . t a k V Z Z Z B B K R / ] o.O.=.3.;.;.=.-.>.",
"6 6 1 = + + ; : t r 2 , : @ & & = , : < < - = < * = & @ + 9 t e r 2 , , * O * * : 6 8 t r e q 7 < < - & % ; & : 8 9 y y y 8 9 8 ",
"z v D D m 7 . x 8.2.o.] W W ] ] ] [ | {  .X.o.o.o.] k @ r 4.s.>.4.6.2.+.` [ [ [ &.=.=.;.4.4.4.=.o.` Z v 8 + y l v Z S Z Z Z m l ",
"a.J.E.i.;.K o Z P.c.v.V.c.c.C.q.w.9.w.>.>.V.M.V.Y.Y.( 2 l w.,.v.q.V.M.x.5.5.5.H.V.w.5.k.I.V.5.;.M.>.) / q q =.I.a.M.Z.W.Z.5.7.w.",
"M.w.g.9.M.O.3 l I.;.5.v.k.v.c.P.L.v.V.,.:.l.5.v.,.Y.f.4 L Y.9.:.P.9.5.g.f.$.O.5.j.c.k.n.V.5.,.-.k.k.3.O., m ).j.-.:.k.V.M.,.,.M.",
"-.O.-.a.V.a.j k E.;.>.5.,.w.9.w.5.5.I.V.w.w.;.>.f.k.7.e Z 5.=.' ;.,.3.>.5.7.5.a.w.i.a.Z.I.V.a.5.3.5.5.o.= R J.@.| ;.5.7.5.M.g.3.",
"=.;.>.k.4.0.C y >.&.=.;.;.4.;.o.4.;.3.4.4.;.O.@.3.4.6.h c 1.;.;.,.5.4.=.;.4.3.=.;.;.O.@.;.4.5.7.5.7.4.] 7 { 2.:.-.4.>.;.4.7.4.;.",
"=.3.-.3.=.4.C y 6.8.6.>.;.4.4.;.3.3.3.;.>.4.3.3.3.5.=.t q o.a.,.3.-.=.>.;.;.-.;.>.=.O.O.=.;.4.;.;.3.>.X.p X.4.5.M.3.-.=.;.=.=.-.",
"7.4.&.:. .Y , : l N V Z H Z Y E E ) / ) |  . .) ' ) ! 2 O c ] ;.>.O.O.>.3.4.4.3.;.,.>.>.,.>.,.>.>.>.&.E , T J.,.5.a.w.5.>.3.3.5.",
"C v a 9 6 @ X * # * = 2 2 : < @ ; & : : & 2 3 2 6 2 = & & % = 7 r y i p h h v F / +.X.[ [ ( _ ~ R A h 6 = : t v S T ! ( P R P C ",
"  = 7 r q p L _ ] [ X.X.X.+.[ G 6 & + e D ]  .X.} ] R R K v j p r q e r w < O = 3 < 2 # 3 q w q 2 * O O @ * # @ o O o @ # # = @ ",
"8 _ ;.4.6.4.V.7.!.k.5.k.v.V.V.>.R 7 @ R c.V.L.R.V.V.q.I.E.I.J.4.O.*.;.6.=.) 7 O o 8 Z R ..*.&.=. .] / T R ] o.+.} ! C h 8 * + = ",
"G i.i.,.k.9.M.V.,.....f.k.,.5.v.9.u @ *.P.,.g.5.v.9.v.k.w.w.V.9.V.V.J.J.k.7.B * 8 %.).V.C.Y.P.c.C.P.E.Z.5.M.Z.R.E.E.T.8.} A 6 & ",
" .k.5.k.V.,.j.5.>.;.,.w.V.c.k.V.i.Z , >.9.j.V.j.j.5.c.c.7.5.k.w.v.k.k.,.5.M.[ < f J.i.5.9.9.5.V.k.5.9.,.,.f.k.5.:.5.,.V.C.4.N * ",
") M.,.,.V.v.L.k.Z.a.i.5.7.5.>.&.i.] 4 ;.c.j.;.5.k.9.V.I.V.w.;.;.:.5.Y.V.n.g.X.< p ).7.5.k.v.:.;.c.j.v.v.k.x.5.,.;.f.j.n.I.E.W & ",
"( J.7. .,.a.7.w.a.5.w.w.w.7.O. .3.) q =.C.-.| ;.5.w.V.k.w.5.=.=.-.5.k.9.x.M.[ 6 M !.7.V.V.,.&.;.V.c.j.j.5.5.5.5.,.9.k.v.j.a.%.7 ",
"` ;.4.;.>.3.>.;.>.>.>.&.>.5.>.;.5.' t =.a.>.>.7.x.W.!.9.5.V.9.k.0.V.M.>.L.!.! : G J.,.,.,.5.V.J.0.>.,.9.w.a.M.a.T.5.c.,.w.6.1.8 "
};
