/* XPM */
static char *fab15906fe1a4845eaf0726c4df7684fppgluIL84kHaIPOs[] = {
/* columns rows colors chars-per-pixel */
"66 64 176 2 ",
"   c None",
".  c #6C3621",
"X  c #753B26",
"o  c #7E4027",
"O  c #7D432B",
"+  c #7F4933",
"@  c #7E5950",
"#  c #766C75",
"$  c #7D757D",
"%  c #84452C",
"&  c #8A462A",
"*  c #8A492D",
"=  c #854D36",
"-  c #8C4C33",
";  c #924F33",
":  c #8A533B",
">  c #8D5033",
",  c #945336",
"<  c #9C5536",
"1  c #95533A",
"2  c #9A563A",
"3  c #9D593B",
"4  c #96593D",
"5  c #A2522F",
"6  c #A45633",
"7  c #A85733",
"8  c #A55935",
"9  c #A95A36",
"0  c #A2573A",
"q  c #AA5738",
"w  c #A45B3B",
"e  c #AC5D3A",
"r  c #B05E37",
"t  c #B15E3A",
"y  c #A76036",
"u  c #AE613C",
"i  c #B3643D",
"p  c #B8673E",
"a  c #B7683F",
"s  c #B9693F",
"d  c #8F5A45",
"f  c #8E5949",
"g  c #955742",
"h  c #985640",
"j  c #975C45",
"k  c #9A5B43",
"l  c #875C53",
"z  c #8B5F53",
"x  c #865E58",
"c  c #9E6047",
"v  c #98614C",
"b  c #8C6255",
"n  c #876259",
"m  c #8B655C",
"M  c #8D695E",
"N  c #916253",
"B  c #9D6B56",
"V  c #916559",
"C  c #956A5B",
"Z  c #9D6A59",
"A  c #AC6342",
"S  c #A56244",
"D  c #B56641",
"F  c #B96740",
"G  c #B66942",
"H  c #BB6B43",
"J  c #BE6F48",
"K  c #BF7147",
"L  c #BF7149",
"P  c #AE6F51",
"I  c #B06D51",
"U  c #856C6B",
"Y  c #8A6A64",
"T  c #936E62",
"R  c #887069",
"E  c #9D7264",
"W  c #8A7575",
"Q  c #82797E",
"!  c #8A7A7B",
"~  c #867579",
"^  c #9D7E74",
"/  c #A07362",
"(  c #A27768",
")  c #A57B6B",
"_  c #A97E6F",
"`  c #A37E73",
"'  c #A87E73",
"]  c #C16E46",
"[  c #C36F48",
"{  c #C27147",
"}  c #C3734A",
"|  c #AA806F",
" . c #A68376",
".. c #AA8374",
"X. c #AD8877",
"o. c #A78779",
"O. c #AC8678",
"+. c #AA897E",
"@. c #7F7780",
"#. c #7E7F87",
"$. c #847D83",
"%. c #897F85",
"&. c #8A8187",
"*. c #84848C",
"=. c #8C868B",
"-. c #8C888D",
";. c #928A8E",
":. c #958589",
">. c #8D8D94",
",. c #8E8D98",
"<. c #938D93",
"1. c #8F9095",
"2. c #929196",
"3. c #9A9296",
"4. c #94959B",
"5. c #99969E",
"6. c #97989D",
"7. c #99999E",
"8. c #AA8982",
"9. c #A99088",
"0. c #B2998E",
"q. c #A99E9C",
"w. c #B59B92",
"e. c #9697A1",
"r. c #9897A2",
"t. c #9798A0",
"y. c #9A9BA2",
"u. c #A09FA4",
"i. c #9FA0A3",
"p. c #A1A2A6",
"a. c #ACA3A5",
"s. c #A4A5AA",
"d. c #A9A6AA",
"f. c #A7A8AE",
"g. c #AAAAAE",
"h. c #B5A6A4",
"j. c #BAA6A3",
"k. c #B4ACAC",
"l. c #BDADA6",
"z. c #B9B1AE",
"x. c #ACADB1",
"c. c #B3AFB2",
"v. c #AFB1B3",
"b. c #B3B2B5",
"n. c #BCB5B3",
"m. c #B5B6B9",
"M. c #B8B7B9",
"N. c #BBBABC",
"B. c #C0AFAC",
"V. c #C4B5B3",
"C. c #C3BBBC",
"Z. c #C6C0BF",
"A. c #BDBDC1",
"S. c #C4BFC1",
"D. c #C9BEC2",
"F. c #BFC0C2",
"G. c #C4C4C5",
"H. c #C9C5C7",
"J. c #C7C8C7",
"K. c #C6C6C9",
"L. c #C9C6C9",
"P. c #C7C9CA",
"I. c #CCCCCD",
"U. c #D0CECE",
"Y. c #CFD0CE",
"T. c #D0D0CF",
"R. c #CECED1",
"E. c #D1CFD3",
"W. c #CED0D1",
"Q. c #D3D3D4",
"!. c #D8D6D7",
"~. c #D6D6D9",
"^. c #D9D7D9",
"/. c #D7D8D9",
"(. c #DBDBDB",
"). c #DEDDE0",
/* pixels */
"                                                                                                                                    ",
"                                                                                                                                    ",
"                                                                                                                                    ",
"                                                                                                                                    ",
"                                                                                                                                    ",
"                                                        ).(.(.(./.!.Q.b.x.m.m.                                                      ",
"                                                ).).(.(.(.Q.Q.Q.T.Q.J.d.g.f.f.c.b.M.                                                ",
"                                              (.(.(.Q.Q.Q.Y.U.I.Y.Y.P.g.p.7.7.p.f.g.p.c.                                            ",
"                                          b.b.U./.R.R.R.E.I.U.I.Y.Y.P.g.7.7.7.7.7.7.7.d.!.                                          ",
"                                      A.v.c.f.A.~.R.R.R.I.E.I.U.I.Y.J.p.4.r.5.5.4.5.4.g.(.(.(.                                      ",
"                                    A.b.x.c.x.x.R.R.R.R.I.I.U.I.P.Y.G.i.4.4.4.4.4.4.7.H./.(.).(.                                    ",
"                                  b.x.x.f.s.y.y.N.L.I.L.I.I.I.U.I.J.N.4.4.4.4.4.4.4.g.!.Q.T.!.(.(.                                  ",
"                                m.v.f.i.u.t.t.y.x.K.G.L.L.D.C.V.V.B.q.! &.>.2.5.4.t.D.^.E.R.U.Q.Q.!.                                ",
"                                x.s.r.r.y.t.t.r.u.b.n.l.w.+.) / B B Z z Y Y W ;.r.x.E.R.R.R.I.E.Q.U.Q.                              ",
"                              s.s.r.e.7.r.t.r.4.=.:.8.E S 3 8 7 8 7 9 0 0 h f Y ! d.K.R.I.I.I.I.I.I.I.                              ",
"                            y.t.e.e.e.r.r.r.<.$.U z k q 7 r i i r r p t t q 0 3 v 9.k.S.I.I.I.I.I.I.I.b.p.s.                        ",
"                            4.4.5.4.e.e.e.,.~ n j w e t t ] { ] G H } H p r r r w v o.h.D.U.K.P.P.P.m.s.s.p.p.                      ",
"                        (.N.>.,.4.4.4.4.,.Q Y h 0 e i p s } } s F H } ] H p p i r w h ' j.C.K.L.P.m.x.x.g.s.s.                      ",
"                      !.!.Q.m.7.2.4.2.>.Q M 2 q e G H L H } } ] F H } ] H H } ] p e 8 3 ' h.M.A.v.x.f.s.y.u.u.p.                    ",
"                      !./.(./.I.c.4.*.Q Y h q q a } L H H } } ] F H } H H H } { s p e w j +.q.u.f.x.s.r.t.y.y.u.                    ",
"                    /.!.Q.W.Q.Q.Y.M.;.U g 0 i i ] } { H H } { H G H } H s s [ { ] p p t 0 j ! <.f.x.y.t.t.y.y.t.                    ",
"                    Q.!.W.W.W.W.Y.P.h.V , e s H H } H H H } { H a s } ] ] s [ [ ] p ] p q < x =.s.f.r.r.t.t.t.4.y.                  ",
"                  (.Q.Q.W.W.W.W.Y.G.0.c 6 a H s H } K H s } L H s s { s H s [ [ [ t ] [ p 6 f W e.s.e.e.t.t.7.6.7.                  ",
"                  /.Q.Q.I.I.W.I.Y.V.| < 9 { H s H { H H K } J L a s { ] ] F [ ] ] ] [ [ H e 1 Y %.r.e.e.t.7.4.6.7.                  ",
"                  Q.I.I.I.I.L.P.G.j.B 0 a L G a H } H H H } G H a H { L H s } J F G J } L G 6 z Q <.4.4.4.4.4.4.4.i.                ",
"                  I.J.H.G.L.G.J.Z.0.c 8 J A y a H H 7 G H L e u a s H 8 a H L e i H J G i H 8 d U *.,.1.1.2.4.6.7.                  ",
"                  G.G.G.G.L.L.P.N.8.4 9 J H i G H H t s H L i G i H L u G H } a G p [ } L J 9 j R &.,.i.x.N.L.P.G.                  ",
"                  N.M.M.m.N.N.m.g. .< u [ J F p H H H F H H H s a s L s H H } H H H H } } H u 3 o.c.K./.(.(.(.Q.Y.Q.                ",
"                  x.g.g.g.g.x.p.<.T 3 i L L G G H L H a F L H G i H { H s p ] H p p H } ] F i 0 X.M.Q.(.Q.Q.Q.Q.I.Q.                ",
"                  b.b.x.x.k.g.y.=.M 4 i L L G a H H F a H J H s a H H F a a } H F p H } ] p i w ..n.U.(.T.Y.Y.Y.I.Q.                ",
"                  b.x.s.y.7.y.7.;.M w i L H H a H H H a s H H H i H ] F H p ] H H p ] } H p p w | z.I.!.T.Y.T.T.Y.W.                ",
"                  b.f.7.6.6.7.7.;.M w i K G a a G H G a s ] s H i p ] p H s H J s p H } ] p i u | z.J.T.Y.I.T.I.I.I.                ",
"                  v.i.4.4.e.e.t.2.b < i H H p i G H F G H { H G i G J F H p J F F a H } ] p D w ' k.G.E.I.I.I.I.I.P.                ",
"                  s.i.1.4.e.e.t.3.M 3 i H H a a F H G p F H G H i G H H H F H H p p H } H p D w ( a.m.I.P.L.L.P.P.L.                ",
"                  y.4.4.4.4.4.e.2.M 3 i H H p a G F G G G G S A i D D A D G J p H p H { F H p e / a.b.G.G.K.P.P.L.P.                ",
"                  4.1.4.4.1.,.y.<.b 3 i H H p i p J G H A 1 . = S D 4 . % e J H F a H ] p F p w E a.b.A.G.G.L.P.L.P.                ",
"                  4.,.2.4.r.y.y.3.T 3 i H F G i p s p G < O = O - 4 % > X - D H G p a H F a p S C 3.p.x.b.b.m.m.m.m.                ",
"                  G.N.A.K.L.K.K.n.O.3 u F G G i i F a G & : P : X % 1 I j % D D D i H H p a t w b $.-.g.x.x.x.x.x.x.x.              ",
"                  (.(.(././.W.R.Z.X.3 i G F p i a F p D * % j + % * % k = & D D a i s L s a i w V &.4.g.x.f.s.s.s.s.s.s.            ",
"                  (.(.Q.Q./.W.R.Z.X.< e F G p i i G i D w * o % w w - X % 0 D D a i s H a i G w V ! 6.f.y.t.7.7.t.r.r.s.            ",
"                  (.Q.I.U.R.I.R.C.X.< u H G a i i H D D e A w D i u D A D e D i D t H H G i i y b &.4.y.r.6.r.r.t.t.5.y.            ",
"                  /.W.I.I.I.I.R.C.X.3 i G a i t D H D u t D i D e i D i G e i D i i G H G u u w n @.>.e.6.r.4.4.4.t.4.y.            ",
"                (.Q.I.P.I.I.I.R.H.O.0 u G G a u i D D D u i i D u i D u D e i i i i G H D u u y b @.>.4.4.4.e.4.4.4.4.7.            ",
"                Q.R.P.L.I.L.L.P.C...3 e p a i i D G e D e D D i e u D i G e e D i i a G i u u w b $ *.4.4.1.2.2.4.4.2.4.            ",
"                R.G.G.G.K.P.P.R.C...3 u i a i u i D i i e D D e e i i i D e u D i i a i i u u 0 l # $.1.,.2.,.2.4.4.7.y.            ",
"                L.A.A.A.A.A.A.A.k.` 2 e i i i i u D u i e e i D e u i u i e i i i u i a i i u w T ;.2.s.s.u.p.p.p.s.f.b.            ",
"                m.b.b.v.x.x.x.s.3.T 2 e u i i e t D i e e i i i e e a i i e i i i r a a u i u w ) n.L./.~.~.~./.Q.Q.Q.E.            ",
"                x.f.s.y.s.y.s.r.<.m 3 e e i a e e i i i e i i e e u i i i e e i u u i i i u u w ) n.I.).).).).).(.(.(.Q.            ",
"                x.y.6.6.7.7.7.6.<.m < e u D i u u i u u e i i i e e i i i e e i i u i i i u e w ) n.T.(.(.Q.Q.Q.Q.E.E.R.            ",
"                p.7.6.6.6.6.r.6.;.b 1 9 e u u u u i u i 9 i u i e e e i i e u i u u i i u u e w ) z.T.(.Q.T.I.U.I.I.I.R.            ",
"                7.4.4.6.4.4.4.4.=.n 2 e e i u u u u i u e u u u e r D A i 9 e A u y u u A i u 0 ( z.I.!.I.P.P.P.I.I.L.L.Q.          ",
"                4.2.2.2.4.2.2.r.-.n 1 9 e w 0 u u 9 6 e 9 e 6 u q e e 6 e 9 u 0 9 u e w 0 e w 0 ( k.G.J.G.G.J.G.G.G.L.K.I.          ",
"                2.>.1.,.2.2.2.e.&.n 1 w u 6 0 e 9 w < e 9 e < w e e e < y e e < e u 9 8 8 u e w / q.N.Z.F.F.F.F.A.N.m.b.m.          ",
"                b.f.d.f.x.x.s.p.3.T 1 9 e u u e y u u e e e u u e 9 u u u 9 e u u 9 9 u u u 9 0 V ;.d.m.m.m.b.v.x.f.x.f.x.          ",
"              (.(./././.(.^.!.R.C. ., 8 9 u u e e e u e 9 e u u 9 8 e u u 8 y u 9 8 8 9 9 q q < b $.y.c.x.g.g.g.f.f.f.s.y.          ",
"              /./.Q.Q.R.Q.E.E.I.C...; 6 8 e e 9 9 e e 9 9 e e e 8 6 9 9 9 6 8 9 9 8 8 9 9 7 6 , l &.p.p.i.i.i.t.y.y.y.t.7.y.        ",
"              I.J.G.G.J.J.J.J.J.n.` - 6 6 8 8 8 6 9 9 8 5 9 9 9 6 5 9 9 6 6 6 8 9 6 6 8 9 8 6 , x $.4.4.4.4.4.1.,.1.4.4.1.1.        ",
"              C.M.N.m.m.N.m.N.N.c. .: < 3 0 0 < < 3 0 w < 3 3 w < < 3 0 0 < < 0 3 < < 0 w 6 < , @ $ <.2.1.>.*.#.#.*.>.>.>.>.        ",
"                                                                                                                                    ",
"                                                                                                                                    ",
"                                                                                                                                    ",
"                                                                                                                                    ",
"                                                                                                                                    ",
"                                                                                                                                    "
};
