/* XPM */
static char *_86cd8257a8f4a9c863889214c9ec39dn9TUImNMjXZScAZO[] = {
/* columns rows colors chars-per-pixel */
"64 64 203 2 ",
"   c None",
".  c #BC5507",
"X  c #B4520B",
"o  c #BC540A",
"O  c #BC580B",
"+  c #C05707",
"@  c #C85F07",
"#  c #C45C09",
"$  c #C95E08",
"%  c #CB650B",
"&  c #C4600A",
"*  c #D26D07",
"=  c #D2650A",
"-  c #D26B0C",
";  c #DA6C0A",
":  c #D86D07",
">  c #DB750C",
",  c #DE7A0C",
"<  c #C76B11",
"1  c #DB7B13",
"2  c #D3791C",
"3  c #E3730C",
"4  c #E47C0E",
"5  c #EE7B0D",
"6  c #E9770C",
"7  c #F17D0C",
"8  c #DC850E",
"9  c #DC8413",
"0  c #D4881B",
"q  c #E6830C",
"w  c #EB840D",
"e  c #E38A0B",
"r  c #ED890C",
"t  c #F2830D",
"y  c #F58C0D",
"u  c #F98E0D",
"i  c #EB9B0D",
"p  c #EB920D",
"a  c #F5930C",
"s  c #F8960B",
"d  c #F39D0C",
"f  c #FA9C0C",
"g  c #E58010",
"h  c #EE8211",
"j  c #ED8D1B",
"k  c #EC8A18",
"l  c #F28713",
"z  c #F48E14",
"x  c #ED9514",
"c  c #EF9F13",
"v  c #E69E1B",
"b  c #F69515",
"n  c #F99612",
"m  c #F79A14",
"M  c #FA9D11",
"N  c #F4951B",
"B  c #F6991D",
"V  c #FA9C1A",
"C  c #EFAB08",
"Z  c #F6A30C",
"A  c #F9A30C",
"S  c #F5AC0C",
"D  c #FAAB0D",
"F  c #F5B30D",
"G  c #FBB30D",
"H  c #F7BC0D",
"J  c #FBBC0D",
"K  c #E7AA1B",
"L  c #F7A413",
"P  c #FAA312",
"I  c #FAAB14",
"U  c #F5A219",
"Y  c #FBA21E",
"T  c #FAAC1B",
"R  c #EBB01A",
"E  c #F1B114",
"W  c #FAB314",
"Q  c #FABA13",
"!  c #FAB21B",
"~  c #FABC1C",
"^  c #DE9F26",
"/  c #DD9830",
"(  c #EA8F20",
")  c #E79829",
"_  c #F59B23",
"`  c #F89F20",
"'  c #E7A722",
"]  c #F3A626",
"[  c #F8A323",
"{  c #FAAC26",
"}  c #F6A52B",
"|  c #F5AB2C",
" . c #FAAD2C",
".. c #ECB52F",
"X. c #FAB224",
"o. c #F2BB22",
"O. c #FABF20",
"+. c #F9B22C",
"@. c #FABB2A",
"#. c #F6AB32",
"$. c #F9AD34",
"%. c #F8B335",
"&. c #FBBA34",
"*. c #F7B73E",
"=. c #FABC3B",
"-. c #F6B739",
";. c #FBC30D",
":. c #FCCB0D",
">. c #F7CA0A",
",. c #FCD30D",
"<. c #FCDB0D",
"1. c #EFC01B",
"2. c #FAC412",
"3. c #F6CB15",
"4. c #FBCD12",
"5. c #FAC31B",
"6. c #F6CA1B",
"7. c #F7D217",
"8. c #F9D412",
"9. c #F7DF16",
"0. c #FADB13",
"q. c #F9D51E",
"w. c #FCE30D",
"e. c #FDEB0D",
"r. c #FEF40E",
"t. c #FEF90C",
"y. c #FAEB13",
"u. c #FAE617",
"i. c #FBF413",
"p. c #FCF817",
"a. c #EFC02A",
"s. c #FBC324",
"d. c #FBCC24",
"f. c #FAC728",
"g. c #FBCC2B",
"h. c #FBD322",
"j. c #FBD22E",
"k. c #FBDA2C",
"l. c #F6D928",
"z. c #FAC337",
"x. c #FCC33D",
"c. c #F1CC3B",
"v. c #FAC938",
"b. c #FBD333",
"n. c #FBD936",
"m. c #FCD639",
"M. c #FCDB3B",
"N. c #FCEA2B",
"B. c #FEFB25",
"V. c #FDE13D",
"C. c #FBEA37",
"Z. c #FCF535",
"A. c #FCF636",
"S. c #CF8D48",
"D. c #D5984A",
"F. c #D18E55",
"G. c #D79B59",
"H. c #DEB05B",
"J. c #EFAC42",
"K. c #F7AD44",
"L. c #E2B04A",
"P. c #F7B041",
"I. c #F6B34C",
"U. c #F7BB4F",
"Y. c #FABC49",
"T. c #F9BE52",
"R. c #F8BE5C",
"E. c #F7BF62",
"W. c #EDC54A",
"Q. c #FBC441",
"!. c #FDCB44",
"~. c #FBCD4B",
"^. c #FBD44B",
"/. c #FCDA4C",
"(. c #FBD044",
"). c #F7C15F",
"_. c #F9C35B",
"`. c #FCD651",
"'. c #F3DD55",
"]. c #FBDB54",
"[. c #FCDF59",
"{. c #FDE343",
"}. c #FAE74E",
"|. c #FCF544",
" X c #FBE757",
".X c #FCE25B",
"XX c #E8C661",
"oX c #F7C266",
"OX c #F9C764",
"+X c #FAC86B",
"@X c #F8CA77",
"#X c #F8D17F",
"$X c #F7EB61",
"%X c #FCF666",
"&X c #F5E973",
"*X c #F8CF86",
"=X c #EBD18C",
"-X c #F9D181",
";X c #FAD58B",
":X c #FBEF8A",
">X c #FAE2AE",
",X c #F7EFCB",
"<X c #FBF7C5",
/* pixels */
"                                                                                                                                ",
"                                                                                                                                ",
"                                                                                                                                ",
"                                                                                                                                ",
"                                                                                                                                ",
"                                                                                                                                ",
"                                                          9.9.0.0.0.8.7.                                                        ",
"                                                    y.y.e.w.w.w.<.<.<.,.,.8.3.                                                  ",
"                                                r.r.r.e.e.w.w.w.<.0.<.,.,.,.:.4.2.                                              ",
"                                            p.i.r.r.e.r.e.w.w.<.w.<.<.,.,.,.,.:.:.4.                                            ",
"                                        p.i.t.t.r.r.A.%XC.N.C.}.:X.X0.<.,.,.,.:.:.:.2.R                                         ",
"                                      i.i.t.t.t.t.Z.<X,X=XH.D.S.F.G.L.c.q.,.,.:.:.:.;.;.K                                       ",
"                                    i.r.t.t.t.p.|.&XXX^ 8 : : : * * - 2 / a.4.:.:.;.;.;.2.v                                     ",
"                                  y.i.r.r.t.B.%X}.~ C C d d S G G S S D C U o.8.:.:.;.;.;.5.0 o                                 ",
"                                y.e.r.r.t.Z.$Xl.>.H C F ;.;.J J G G F F S D D Q 2.:.;.;.;.;.o.< X                               ",
"                                w.e.e.e.Z.'.1.>.;.;.>.,.:.;.H J H J J F F S S D Q :.;.;.J J 2.' +                               ",
"                              w.y.e.e.C.W.E F H >.,.,.:.;.2.q.g.b.j.j.g.s.Q G S S J ;.2.2.J J s.2 .                             ",
"                            0.w.w.w.N.W.L Z S >.,.,.:.8.k.V./.M.m.b.j.g.g.s.~ G D G J ;.J J J s.$.= o                           ",
"                          0.<.w.w.u.W.x a d H ,.:.:.h.C.V.{.M.n.b.b.g.g.f.s.~ D D D J ;.;.J J Q !.k @                           ",
"                          0.<.<.<.c.j y a F >.>.,.k.{.{.V.M.n.n.b.j.g.g.s.5.Q D D D D ;.J J J J m.%.3 O                         ",
"                        8.<.<.<.q.) 7 t Z ;.>.;.k.}.{.{.M.M.m.m.b.b.g.s.s.~ W D D S D H J J J G f.~.j =                         ",
"                        ,.<.<.0...5 t a H ;.;.l.{.{.V.V.M.n.b.b.g.g.g.s.O.Q D S D A A G J J G G o.].#.3 O                       ",
"                      8.,.<.<.6.j w t S J J h.{.{.V./.M.M.n.b.b.g.g.s.s.~ W S D D D A S J G J G W ].=.h %                       ",
"                      ,.,.,.0.' w t d H ;.6.{.{.V.V.V.M.n.m.b.j.g.s.s.s.Q D S D A A A D J J G G W /.Q._ ;                       ",
"                      ,.,.,.3.k 7 t F J 2.n.{.V.V.V.M.n.m.b.g.g.g.s.s.~ F D D D D Z A A H G G G F ^.~.| 4                       ",
"                    4.:.,.,.E h t f J J d.{.{./.M.M.n.m.b.b.g.g.f.s.O.W D D D A A Z A A J G G G D ^.~.%.h %                     ",
"                    4.:.:.>.b t t D H ;.n.{.{.M.n.n.m.b.b.g.g.f.s.5.~ G D S Z D A A Z A G G G G G ^.~.=.z -                     ",
"                    :.:.:.;.r t a G H d.{.M.M.n.M.m.b.j.g.g.f.s.s.~ I D D D A Z A Z A A G G G D D /.~.Y.N >                     ",
"                  2.:.:.:.S t t A G Q n.V.M.n.n.m.b.j.g.g.g.s.s.~ W D D D D A Z A f f L W G G G D /.^.x._ 3                     ",
"                  2.;.:.:.i t y S G 5.M.M.n.m.m.b.j.j.g.f.f.s.~ W D D D Z A A A A Z f Z G G D D W ].~.x.` 4                     ",
"                  2.;.;.;.x t a G G d.n.n.m.b.b.j.g.g.f.f.O.O.Q F I D Z A A Z A Z f f I G D D D W .X~.Q.` 4                     ",
"                  2.;.;.H r y s D H j.n.m.b.b.g.g.g.f.@.O.O.! I D D I S A A Z Z f f f T G D D D ! .X!.x.[ q                     ",
"                  ;.;.;.F r y f F Q b.b.j.b.g.g.g.f.s.s.5.W D S D A A A Z Z A f d f M ! D D D A O..X!.x.Y q                     ",
"                  J J ;.F r y d D ~ b.b.g.g.g.f.s.s.O.~ W D S D D Z Z A A A Z f f f U ! G D D A v.[.!.x.V g                     ",
"                  Q J ;.C w u A D 5.g.g.g.f.f.s.s.O.~ I D D D Z S Z A A f Z f f f s { W D D A D /.`.!.x.m q                     ",
"                  J J J S w u A G s.g.f.f.f.s.s.~ ! F D D D S D A A A Z Z Z f f f m %.D I D D T [.!.!.&.n                       ",
"                  J J J S w y A D s.s.s.s.s.~ ~ W D D S S A A A Z A Z Z f f d f s  .X.D A D A @.[.!.x.+.a                       ",
"                  G G J G e u f D O.s.s.~ ~ W D D D D D D A A A A Z f f f f f a M P.I A D D A !.`.!.x.Y y                       ",
"                  J G G G e y f A ~ O.~ W S S D D S A D A Z A A f Z f d f f n a } &.D D A A T ].!.Q.&.n w                       ",
"                  W G G G e y s A W W D D D D D Z D A Z A Z A A f f f f f s d m T.T A A A A x.].Q.Q. .u                         ",
"                  W G G G i w f A D D D S D S A A A Z P A A f d f d f f s s s P.-.D A A A I `.!.x.=.V y                         ",
"                  I D G G Z 4 s f D D S A A A Z Z Z A Z A Z A d f f a f s s } _.P A A P f z.`.Q.=. .u 4                         ",
"                  I D G D G e r f A S A D A A Z A f Z Z f f d f f f f a s V oX+.A P A A I ^.!.=.=.V y                           ",
"                    D D D G d 4 a f A A A Z A A Z Z f f f f f d f s s a s E.Y.A A A A f z.~.=.%.[ y 4                           ",
"                    I D D I D e q s A A A A A A Z f f f f f s s a a a n E._.P A f A f X.^.=.=. .z l                             ",
"                      I D D D P 8 r d A Z f f d f f d f s M s s s a b E.OXP A f f f P !.x.%.$.b t ,                             ",
"                      P A A D D Z 9 p f d f f f f f f s s s s s a _ @XOXP A f A f M x.Q.%.| b l 4                               ",
"                      P D A A A D ] ) a f f f d s M s M s s s n I.;XT.P A f f f f @.Q.$.} z t 7                                 ",
"                        P A A A A P %.*._ f s s f s s s s b K.*X-X$.f f A f f f X.=.} _ l t w -                                 ",
"                          P A P A P A { T.E.I.$.} } #.K.+X>X,X_.P A f f f f f T  .N l 7 l t -                                   ",
"                            A f A A A A A  .Y.+X@X#X*X@X+X;XR.f f f f f f f U N h 7 t t 7 -                                     ",
"                              M f f f f f f f A P A f f f f f f f f f f M Y l 7 7 t 7 5 =                                       ",
"                                M f f f f M f f f f f f f f f s f f f M n 7 7 7 7 7 3 &                                         ",
"                                  m f M f f f f f f f f f f f f f s y l 6 7 7 7 6 = O                                           ",
"                                      n f f f f f f f f f f s a t 7 5 5 5 6 3 = # X                                             ",
"                                        , 4 q z a a u y w 3 ; ; ; ; ; ; * & O X                                                 ",
"                                            # # $ @ @ $ + + + + + . . . . X X                                                   ",
"                                                o o o o + . . . . . X X X                                                       ",
"                                                        X X X X X                                                               ",
"                                                                                                                                ",
"                                                                                                                                ",
"                                                                                                                                ",
"                                                                                                                                ",
"                                                                                                                                "
};
