/* XPM */
static char *d034809c079e4628cc488458362df638YbCvJE2pfVX5tkMy[] = {
/* columns rows colors chars-per-pixel */
"57 68 16 1 ",
"  c None",
". c black",
"X c gray19",
"o c #583008",
"O c #484848",
"+ c #784040",
"@ c #A86800",
"# c #C88818",
"$ c #E0A038",
"% c #D89870",
"& c #F0C078",
"* c #888888",
"= c #A098A8",
"- c #F8D0B8",
"; c #C8C8C8",
": c #E8E8F8",
/* pixels */
"                                                         ",
"                                                         ",
"                                                         ",
"                         =    ==                         ",
"                  oooooooo=  =oooo                       ",
"                  oooooooo====oooo==                     ",
"                  ..&&&&@@oooooo$$oo=                    ",
"                  ..&&&&@@oooooo$$oo==                   ",
"                    ..&&&&$$@@oo$$$$oo= ..               ",
"              ===   ..&&&&$$@@oo$$$$oo==..=              ",
"            oooooo@@$$@@$$&&$$$$@@$$$$oo$$..             ",
"            oooooo@@$$@@$$&&$$$$@@$$$$oo$$..             ",
"          ..$$&&&&$$$$$$&&$$$$$$$$&&$$$$$$..             ",
"          ..$$&&&&$$$$$$&&$$$$$$$$&&$$$$$$..=            ",
"            ..@@$$&&&&&&$$$$$$$$$$$$&&&&$$@@..           ",
"            ..@@$$&&&&&&$$$$$$$$$$$$&&&&$$@@..           ",
"             =oo@@$$&&&&&&$$$$$$$$&&&&&&$$$$..           ",
"            ==oo@@$$&&&&&&$$$$$$$$&&&&&&$$$$..=          ",
"            oo$$$$$$$$$$&&&&&&&&&&&&$$$$$$$$oo=          ",
"            oo$$$$$$$$$$&&&&&&&&&&&&$$$$$$$$oo=          ",
"          oo$$$$$$$$$$$$$$$$@@$$$$$$$$$$$$##@@..         ",
"          oo$$$$$$$$$$$$$$$$@@$$$$$$$$$$$$##@@..         ",
"        ..$$$$##$$$$@@$$$$@@$$$$@@$$$$@@$$@@@@..         ",
"        ..$$$$##$$$$@@$$$$@@$$$$@@$$$$@@$$@@@@..         ",
"        ....oo$$$$@@##$$oo##$$@@##$$@@oo$$oo@@..         ",
"        ....oo$$$$@@##$$oo##$$@@##$$@@oo$$oo@@..         ",
"            oo$$oooo$$oooo$$oooo$$oo--oo@@%%oo=          ",
"            oo$$oooo$$oooo$$oooo$$oo--oo@@%%oo           ",
"            ....%%oooo--oooo--oooo------oo%%..           ",
"            ....%%oooo--oooo--oooo------oo%%..           ",
"              ..%%oo%%oo------------oo%%oo%%..           ",
"              ..%%oo%%oo------------oo%%oo%%..           ",
"               =..@@%%;;..--------..;;%%@@..             ",
"                ..@@%%;;..--------..;;%%@@..             ",
"                ==..--::oo--------oo::--..=              ",
"                 =..--::oo--------oo::--..               ",
"                 =..++----------------++..               ",
"                 =..++----------------++..               ",
"                  ==....%%--%%%%--%%....=                ",
"                   =....%%--%%%%--%%....=                ",
"                   =..**....++++....**..=                ",
"                  ==..**....++++....**..=                ",
"                  ..OOOO;;;;%%%%;;;;OOOO..               ",
"                  ..OOOO;;;;%%%%;;;;OOOO..               ",
"                  ..OOXXOO;;++++;;OOXXOO..               ",
"                  ..OOXXOO;;++++;;OOXXOO..               ",
"                ..XXOO..OOOOXXXXOOOO..OOXX..             ",
"                ..XXOO..OOOOXXXXOOOO..OOXX..             ",
"                ..OOXX..OOOOXXXXOOOO..XXOO..             ",
"                ..OOXX..OOOOXXXXOOOO..XXOO..             ",
"               .%%OOXX**XXOOXXXXOOXX**XXOO%%..           ",
"               .%%OOXX**XXOOXXXXOOXX**XXOO%%..           ",
"               .----..oo****;;;;****oo..----..           ",
"               .----..oo****;;;;****oo..----..           ",
"                ....==oo##@@oooo@@##oo==....             ",
"                ....==oo##@@oooo@@##oo==....             ",
"                   =..@@@@@@....@@@@@@..                 ",
"                    ..@@@@@@....@@@@@@..                 ",
"                    oooo@@..=   ..@@oooo                 ",
"                    oooo@@..    ..@@oooo                 ",
"                    ..XXXX..    ..XXXX..                 ",
"                    ..XXXX..    ..XXXX..                 ",
"                      ....        ....                   ",
"                      ....        ....                   ",
"                                                         ",
"                                                         ",
"                                                         ",
"                                                         "
};
