/* XPM */
static char *f25fd7bea5ae4705b4f3dbd9859dad3cR4AgMOZGkZj2F0TT[] = {
/* columns rows colors chars-per-pixel */
"58 64 16 1 ",
"  c None",
". c black",
"X c gray19",
"o c #583008",
"O c #484848",
"+ c #784040",
"@ c #A86800",
"# c #C88818",
"$ c #E0A038",
"% c #D89870",
"& c #F0C078",
"* c #888888",
"= c #A098A8",
"- c #F8D0B8",
"; c #C8C8C8",
": c #E8E8F8",
/* pixels */
"                            =oooo=                        ",
"                        =   =oooo==                       ",
"                 oooooooo   =..&&oo                       ",
"                 oooooooo====..&&oo==                     ",
"                 ..&&&&$$oooo..$$&&oo= ..                 ",
"                 ..&&&&$$oooo..$$&&oo==..                 ",
"                   ..&&&&$$$$@@..$$$$oo$$..               ",
"                   ..&&&&$$$$@@..$$$$oo$$..               ",
"           oooooo@@##@@$$&&$$$$##$$$$##$$..=              ",
"           oooooo@@##@@$$&&$$$$##$$$$##$$..=              ",
"         ..$$&&&&$$$$$$$$$$$$$$$$$$$$&&$$@@..             ",
"         ..$$&&&&$$$$$$$$$$$$$$$$$$$$&&$$@@..             ",
"           ..@@$$&&&&$$$$$$$$$$$$&&&&$$$$$$..             ",
"           ..@@$$&&&&$$$$$$$$$$$$&&&&$$$$$$..=            ",
"             oo@@$$&&&&&&&&&&&&&&&&&&$$$$$$@@=            ",
"             oo@@$$&&&&&&&&&&&&&&&&&&$$$$$$@@=            ",
"           oo##&&$$$$$$&&&&&&&&&&$$$$$$$$$$##..           ",
"           oo##&&$$$$$$&&&&&&&&&&$$$$$$$$$$##..           ",
"         oo&&&&$$$$$$$$$$@@$$$$$$$$$$$$$$$$##..           ",
"         oo&&&&$$$$$$$$$$@@$$$$$$$$$$$$$$$$##..           ",
"       ..&&&&##$$$$@@$$$$@@##$$$$$$$$$$$$$$@@..           ",
"       ..&&&&##$$$$@@$$$$@@##$$$$$$$$$$$$$$@@..           ",
"       ....oo$$$$oooo$$oo--@@$$$$$$##$$$$##oo=            ",
"       ....oo$$$$oooo$$oo--@@$$$$$$##$$$$##oo             ",
"           oo$$oo%%oooo----@@##$$$$@@####@@..             ",
"           oo$$oo%%oooo----@@##$$$$@@####@@..             ",
"           oooo++%%----oo--%%@@$$##@@@@@@oo=              ",
"           oooo++%%----oo--%%@@$$##@@@@@@oo=              ",
"               ++----..;;----@@##@@@@@@@@..               ",
"               ++----..;;----@@##@@@@@@@@..               ",
"               ++----oo::----@@----@@@@..=                ",
"               ++----oo::----@@----@@@@..                 ",
"               %%------------%%%%%%@@..=                  ",
"                %------------%%%%%%@@..                   ",
"                 ++%%------%%%%++@@oo=                    ",
"                 ++%%------%%%%++@@oo                     ",
"                   ....++++%%oooo..=                      ",
"                   ....++++%%oooo..                       ",
"                    ===OOOO;;;;**..                       ",
"                     ==OOOO;;;;**..                       ",
"                    =++..;;;;OO..==                       ",
"                     ++..;;;;OO..==                       ",
"                   ..%%..OO..OOOO..                       ",
"                   ..%%..OO..OOOO..                       ",
"                   ..%%XXOOXXXXOOXXXX                     ",
"                   ..%%XXOOXXXXOOXXXX                     ",
"                     ++OOOOOO..--OOXX                     ",
"                     ++OOOOOO..--OOXX                     ",
"                     ..;;OOXX..%%%%..                     ",
"                     ..;;OOXX..%%%%..                     ",
"                     ..oo******....OO                     ",
"                     ..oo******....OO                     ",
"                     oo@@@@@@@@oooooo..                   ",
"                     oo@@@@@@@@oooooo..                   ",
"                 ....@@@@@@@@....oooo..                   ",
"                 ....@@@@@@@@....oooo..                   ",
"                 ..XXXX@@@@..    ..oo..                   ",
"                 ..XXXX@@@@..    ..oo..                   ",
"                   ..XXXX..      ....                     ",
"                   ..XXXX..      ....                     ",
"                     ....                                 ",
"                     ....                                 ",
"                                                          ",
"                                                          "
};
