/* XPM */
static char *cad4055ea87444c7f681bbbaadc23bcfgvbhg6mhQ6gYjvrW[] = {
/* columns rows colors chars-per-pixel */
"60 62 16 1 ",
"  c None",
". c black",
"X c #202838",
"o c gray19",
"O c #583008",
"+ c #484848",
"@ c #A86800",
"# c #C88818",
"$ c #E0A038",
"% c #D89870",
"& c #F0C078",
"* c #888888",
"= c #A098A8",
"- c #F8D0B8",
"; c #B8C8D8",
": c #C8C8C8",
/* pixels */
"                                                            ",
"                                                            ",
"                       OOOO    OOOOOOOO                     ",
"                       OOOO====OOOOOOOO                     ",
"                     OO$$OOOOOO@@&&&&..                     ",
"                     OO$$OOOOOO@@&&&&..                     ",
"               ..   O$$$$OO@@$$&&&&..=                      ",
"               ..  OO$$$$OO@@$$&&&&..=====                  ",
"             ..$$OO$$$$@@$$$$&&$$@@$$@@OOOOOO               ",
"             ..$$OO$$$$@@$$$$&&$$@@$$@@OOOOOO               ",
"             ..$$$$$$&&$$$$$$$$&&$$$$$$&&&&$$..             ",
"             ..$$$$$$&&$$$$$$$$&&$$$$$$&&&&$$..             ",
"           ..@@$$&&&&$$$$$$$$$$$$&&&&&&$$@@..               ",
"           ..@@$$&&&&$$$$$$$$$$$$&&&&&&$$@@..=              ",
"           ..$$$$&&&&&&$$$$$$$$&&&&&&$$@@OO=                ",
"           ..$$$$&&&&&&$$$$$$$$&&&&&&$$@@OO==               ",
"           OO$$$$$$$$&&&&&&&&&&&&$$$$$$$$$$OO=              ",
"           OO$$$$$$$$&&&&&&&&&&&&$$$$$$$$$$OO==             ",
"          .@@$$$$$$$$$$$$$$$$$$$$$$$$$$$$$$$$OO=            ",
"         ..@@$$$$$$$$$$$$$$$$$$$$$$$$$$$$$$$$OO==           ",
"         ..@@$$$$$$$$$$$$$$$$$$$$$$$$$$$$$$$$$$..           ",
"         ..@@$$$$$$$$$$$$$$$$$$$$$$$$$$$$$$$$$$..           ",
"         ..@@$$$$$$$$$$$$$$$$$$$$$$$$$$$$$$OO....           ",
"         ..@@$$$$$$$$$$$$$$$$$$$$$$$$$$$$$$OO....           ",
"          =OO##$$$$$$$$$$$$$$$$$$$$$$$$####OO=              ",
"           OO##$$$$$$$$$$$$$$$$$$$$$$$$####OO=              ",
"           ..@@$$$$$$$$$$$$$$$$$$$$$$$$@@....=              ",
"           ..@@$$$$$$$$$$$$$$$$$$$$$$$$@@....               ",
"           OO@@######$$$$$$$$$$$$######@@OO=                ",
"           OO@@######$$$$$$$$$$$$######@@OO=                ",
"           OO@@@@@@@@############@@@@@@@@OO                 ",
"           OO@@@@@@@@############@@@@@@@@OO                 ",
"             ..@@@@@@@@@@@@@@@@@@@@@@@@..=                  ",
"             ..@@@@@@@@@@@@@@@@@@@@@@@@..                   ",
"              =OO@@@@@@@@@@@@@@@@@@@@OO=                    ",
"              =OO@@@@@@@@@@@@@@@@@@@@OO=                    ",
"               ==..@@@@@@@@@@@@@@@@..==                     ",
"                =..@@@@@@@@@@@@@@@@..=                      ",
"                =XX;;;;@@@@@@@@;;;;XX=                      ",
"                =XX;;;;@@@@@@@@;;;;XX==                     ",
"               ..++++::::::::::::++++..                     ",
"               ..++++::::::::::::++++..                     ",
"               ..++oo++++++++++++oo++..                     ",
"               ..++oo++++++++++++oo++..=                    ",
"             ..oo++..++++++++++++..++oo..                   ",
"             ..oo++..++++++++++++..++oo..                   ",
"             ..++oo..++++++++++++..oo++..                   ",
"             ..++oo..++++++++++++..oo++..                   ",
"           ..%%++oo**oo++++++++oo**oo++%%..                 ",
"           ..%%++oo**oo++++++++oo**oo++%%..                 ",
"           ..----..OO****::::****OO..----..                 ",
"           ..----..OO****::::****OO..----..                 ",
"             ....==OO##@@OOOO@@##OO==....                   ",
"             ....==OO##@@OOOO@@##OO==....                   ",
"                 ..@@@@@@....@@@@@@..=                      ",
"                 ..@@@@@@....@@@@@@..                       ",
"                 OOOO@@..====..@@OOOO                       ",
"                 OOOO@@..   =..@@OOOO                       ",
"                 ..oooo..   =..oooo..                       ",
"                 ..oooo..   =..oooo..                       ",
"                   ....        ....                         ",
"                   ....        ....                         "
};
