/* XPM */
static char *_ac27928692f48dd87fcd2b5139271faQuilyDgj3ZlAjMRH[] = {
/* columns rows colors chars-per-pixel */
"56 64 16 1 ",
"  c None",
". c black",
"X c gray19",
"o c #583008",
"O c #484848",
"+ c #784040",
"@ c #A86800",
"# c #C88818",
"$ c #E0A038",
"% c #D89870",
"& c #F0C078",
"* c #888888",
"= c #A098A8",
"- c #F8D0B8",
"; c #C8C8C8",
": c #E8E8F8",
/* pixels */
"                        oooo                            ",
"                        oooo                            ",
"                       o&&..    oooooooo                ",
"                       o&&..   =oooooooo                ",
"                ..   o&&$$..oooo$$&&&&..                ",
"                ..  oo&&$$..oooo$$&&&&..                ",
"              ..$$oo$$$$..@@$$$$&&&&..                  ",
"              ..$$oo$$$$..@@$$$$&&&&..==                ",
"              ..$$##$$$$##$$$$&&$$@@##@@oooooo          ",
"              ..$$##$$$$##$$$$&&$$@@##@@oooooo          ",
"            ..@@$$&&$$$$$$$$$$$$$$$$$$$$&&&&$$..        ",
"            ..@@$$&&$$$$$$$$$$$$$$$$$$$$&&&&$$..        ",
"            ..$$$$$$&&&&$$$$$$$$$$$$&&&&$$@@..          ",
"            ..$$$$$$&&&&$$$$$$$$$$$$&&&&$$@@..=         ",
"            @@$$$$$$&&&&&&&&&&&&&&&&&&$$@@oo=           ",
"            @@$$$$$$&&&&&&&&&&&&&&&&&&$$@@oo==          ",
"          ..##$$$$$$$$$$&&&&&&&&&&$$$$$$&&##oo=         ",
"          ..##$$$$$$$$$$&&&&&&&&&&$$$$$$&&##oo=         ",
"          ..##$$$$$$$$$$$$$$$$@@$$$$$$$$$$&&&&oo=       ",
"          ..##$$$$$$$$$$$$$$$$@@$$$$$$$$$$&&&&oo==      ",
"          ..@@$$$$$$$$$$$$$$##@@$$$$@@$$$$##&&&&..=     ",
"          ..@@$$$$$$$$$$$$$$##@@$$$$@@$$$$##&&&&..      ",
"            oo##$$$$##$$$$$$@@--oo$$oooo$$$$oo....      ",
"            oo##$$$$##$$$$$$@@--oo$$oooo$$$$oo....      ",
"            ..@@####@@$$$$##@@----oooo%%oo$$oo=         ",
"            ..@@####@@$$$$##@@----oooo%%oo$$oo          ",
"             =oo@@@@@@##$$@@%%--oo----%%++oooo          ",
"             =oo@@@@@@##$$@@%%--oo----%%++oooo          ",
"              ..@@@@@@@@##@@----;;..----++              ",
"              ..@@@@@@@@##@@----;;..----++              ",
"               =..@@@@----@@----::oo----+               ",
"                ..@@@@----@@----::oo----+               ",
"                ==..@@%%%%%%------------%               ",
"                 =..@@%%%%%%------------                ",
"                  ==oo@@++%%%%------%%+                 ",
"                   =oo@@++%%%%------%%                  ",
"                    ==..oooo%%++++...                   ",
"                     =..oooo%%++++..                    ",
"                      ..**;;;;OOOO==                    ",
"                      ..**;;;;OOOO=                     ",
"                        ..OO;;;;..=                     ",
"                        ..OO;;;;..                      ",
"                       X..OOOO....                      ",
"                       X..OOOO....                      ",
"                      XXXX..OOOO..=                     ",
"                      XXXX..OOOO..=                     ",
"                    ..XXOO..OOOO--..                    ",
"                    ..XXOO..OOOO--..                    ",
"                    ..OOOOXX..%%%%..                    ",
"                    ..OOOOXX..%%%%..                    ",
"                    ..XX******....XX                    ",
"                   =..XX******....XX                    ",
"                  ..oo@@@@@@@@oooooo....                ",
"                  ..oo@@@@@@@@oooooo....                ",
"                ..XX@@@@@@oo....oooooo..                ",
"                ..XX@@@@@@oo....oooooo..                ",
"                ..XX@@oo..XXXX....oo..                  ",
"                ..XX@@oo..XXXX....oo..                  ",
"                ..XX....        ....                    ",
"                ..XX....        ....                    ",
"                  ....                                  ",
"                  ....                                  ",
"                                                        ",
"                                                        "
};
