/* XPM */
static char *_502b510238a42a0c83a78619de2e7aagB0K3fEstwZNy59y[] = {
/* columns rows colors chars-per-pixel */
"64 64 64 1 ",
"  c #0C0C0C",
". c #0F1010",
"X c #131313",
"o c #181717",
"O c #1C1B1B",
"+ c #201F1F",
"@ c #262626",
"# c #282727",
"$ c #2B2B2B",
"% c #302F2F",
"& c #333333",
"* c #383737",
"= c #3C3B3B",
"- c #413F3F",
"; c #444343",
": c #494646",
"> c #4D4B4B",
", c #514E4E",
"< c #505050",
"1 c #545151",
"2 c #575353",
"3 c gray33",
"4 c #555555",
"5 c #585454",
"6 c #585757",
"7 c #5B5757",
"8 c #5D5A5A",
"9 c #5E5B5B",
"0 c #5F5E5E",
"q c #605C5C",
"w c #615E5E",
"e c #635F5F",
"r c #646060",
"t c #656161",
"y c #686363",
"u c #686565",
"i c #6B6767",
"p c #6C6767",
"a c #6C6868",
"s c #6D6B6B",
"d c #6F6D6D",
"f c #706B6B",
"g c #716E6E",
"h c #736F6F",
"j c #746F6F",
"k c #757070",
"l c #767070",
"z c #767171",
"x c #797474",
"c c #7B7676",
"v c #7C7777",
"b c #7E7979",
"n c #807A7A",
"m c #817B7B",
"M c #837C7C",
"N c #867F7F",
"B c #868080",
"V c #878181",
"C c #888282",
"Z c #898383",
"A c #8B8484",
"S c #8C8585",
"D c #8F8888",
"F c #908989",
/* pixels */
"XX   .                 .             .                          ",
"$@@@@@OOOOOOoo..    @$@@Ooo..       o++Oo+OOoooXXXX.....        ",
"=&$$&&&$$@@$@$@@O   @$$$@$#@@@+OoO. $&%$&&&$*$@@$@@$@@@@O#@X    ",
">&$&&&$$#@@@@$@$@O  @&$$$$$%$$$$$@O &&$%$$&&$$$$$$$$$$$$$$#$o   ",
"5*$&&&$$$@@@$$$$#@o %*##@@@$@@$@$$@ -*$%$$&$$$$@@@$@$@$$$$$$@o  ",
"9;*:>;==$@$$$$$$@@O &=@#@@@@@@@@@@@X:;&&&&%$$$@@@$$$$$$$$$$$$@  ",
"t>=,4;--&$$$$&$$@@@ &:##$$$$$$$@$$$ <6===&$&$$$$$$$$$@$$$%$$$$. ",
"t;*;;*&&&$$$$$$&@@@ &:$#@$$$@$@$$$@X45=&&&$%$$@$$@$@@@@@@###$@X ",
"0=$$$$@$$@$$$$&$$$@.=>@#@@@$@@@@@@@o2<&$$$$$@$@$@@@@@@@@#@@@$@o ",
"t=@@@@@@$@@@@$$$#@@.=>$$$$$$$@$$$$@o<4&&$&$$$@@@$@@@@@@@$$$$$$O ",
"u;@@@$@@@@@@@@@@$@#X;2$$$$$$$@$$$$$o<4=&%$$$$$$@$$@@@@@@@@$$$$+ ",
"d=@@@@@@@$@$@$&$$$$o=>$$@$@$@@@$$&$O<2*%$$$$$@$$$$&$@$$@$$#%%$+ ",
"d;@@@$$$$$@$$$$$$$$o=<$$$@@$@@@@@$$+40=*&$#$@$$$$$$$$$$$$$$===$X",
"u;$$@&&$&&&$$$$$$$$o;4$$$$$$$@$@@$$+4u==&%$$$#$%&$&$@$$$&&&===& ",
"d;$$$$$$&&&$&$$$$$$O-4$@$@@$$@@$@%*@0u*&$###@@$$$&$$@$$@$&$&&&&.",
"z4$$@&$&&&&$$$$$$$$o;4$@@@@@@@@@@$&@9z-&%$$$#$$$&&$$$$$$&$$&$$$o",
"bx=$$$$%&&$$$$$$$$$O;e&$$$$$$@$@$$&@qM;#$$$###@$$&$$$$$$%%%$&&$o",
"bZ2&$%%&***&%&$$$$$@;d=$&$$&$$$$$%*$9C9%$$$$$$$$$&$&$$#$$$$%$$$o",
"xFb4-=-;>>>===*&&&&$>Vr-*&$$$$$$$&-&qFv7,;;=&&&&&==*&$$$&&%&$&*$",
"bFDZbzdhhdd0><;;;;;;4DVxdt0<>:;;-;>*tFFSCMbvjhstuuu0<>>:>>;;;;4;",
">e0t0eeeee0e44<>;>>;>aaaudue00064,<;>yyuuyyytttt0t00044944<><<<;",
"   . XXXXXXXXoooOOO+o++O+OO@++++++@OOOOOOOOOoOOOoOooooo.XX. ....",
"  O$#oXoX..   X  Xo+OOooooo.o.X.X  X   O@#OOXoXXX  ... .        ",
"  @&$$@@@@O@OoXX  .%%#$$$@@@+@+@+OoX   o;$$#@@@@@@OOoo.oX       ",
"  $&$$$$$$$$$#$@o o=*$%&&&$$@@@$$$$@o  o<=$$$$$$$$$@@@@@@ooX    ",
"  &&$@$@$$@$##$$+.o;=$%&&$$$@@@@####@X oe=@@@@@$$$$$$$$$$$$$O   ",
"  =*@@@@@@@@#@#$@.o;;$&==&$$@@$@$$$#@O Xt;##@@$@$$$&$$%&$$$$#   ",
"  ==$$@@$$@$##$$@Xo<<=;3;==&$$$$$%$#@OXXu<$$$#$$$$$&$%&$$$$$@   ",
"  --##$$$$$@$@$$@.X<3=>3;==&&$$$$$$@@@XXa<%$$@@@$$$$@$%$$$#$$O  ",
"  -;###$@$@@#@###.o<>&*=&&&&$$$$%%%$$@XXs4&$$@@@$@@@$%%$$$##$O  ",
"  ;>#$$$$$$@$@@$@oo<;##@@@$@@$$$$%&$$$oXs4&@@@@@@@@@@@@@@@@@@O  ",
"  ;,$$$$$$$$$$$$$oo3;@##@@@@@@@@@@@@@@oos4$$@@@@@@@@#@#$##@$$@  ",
"  ->@$@$@$@@$@$%&oo4>@@@@@@@@@@@@$$@$$oos9&##$@@@@@$$$$$$$$$$@  ",
"  ::$$@@@$@@@@@$$Oo9<@@@@@$@$$$$$$%$$$@oht%$#@@@@$@@$$$%@$@@$@X ",
"  ;<$$$@$$$@@@@$%oo4>$@$$$$&&$$$$$$$$$oohs*$$@$$$$$&&%&&$$$$$$X ",
"  :<$@$$@$$@@$@%*@o4>$$$$&$&&$$$$$$@$@+Ohz=$$$@$$$$$%%%%%$$$$$o ",
"  -<$@@@@@@@###%*@ 44$$$&$&&&$$&&$$$$$@ohv=$$###$$$$&$%%$$$$$&O ",
"  :9%$$$$$$@###$*@o0s=$$$$$&&&%$$$$$$$@OdV,%$#$$$$$&&$%%$$#$$$O ",
"  ;u*$%$$%$$$$$$*#o0V>$@$$&&&%%$$$$$$$@ohDh-$$$@$$$$$$&&$$$$$$@ ",
"  >m,=&%$$$$$$$&-%oeFd=$&&&===*&&&$$&$@OhDVd;&&$$$$&&&*=&*$$&*@ ",
"  >Fmht5,:;==**;;*O0DVd<>;<444>===&&=&*@kDDVbu6>;;;>;;>4=&&&===.",
"  =vvzzzhfut0e224-O0DDSCVbbxbxs056>>>><&kDDDDZZVxzxbxdhh03>;;>;o",
"   Oooo@O+@O@O@@@@o%;;;:;;;;;;;:=;==*==@=>>>>>>>>>>:>;;;;;==&&&.",
" @OOoXXX         oOooXXXo. X....X........ .. .o+@OOo.. .       .",
" &$$@@@@OOOoXX   O@$@$@@$@@@++++oOOooo.o.     X$&$@@@++ooo. .   ",
"X&&$$$$$$$$@@@@  O#&$&$&&$&$@$$$#$$$$$$$#+o   o%$$$$$$$$$@@@@.  ",
" =$$@$$$$@$$@$$O o&=$$$$&$$$$@@@$$$@$$$$$$#O  .&&$$@$$$@$$@$$@  ",
"X;$@@@@$@@@@@@$O o&:$&&$&$$$$@@$$$@$$$@$$$$@  .**@@@@@@@@@@@$O  ",
"X:*@@@$$$@$@@$$O o*9***&$%$$@@$@$$$$$$$$$%%$X X=-@$@@$$@$$@$$@. ",
" >&$#$$$$$$$$$$@XX=u-*=*$&&$$$$$$$@$$$$$$$$$O X;-$$$$$$@@$$$$$. ",
"X<&#@@@$@@@$@#$@ X=e=*&&$$$$$@@$@@@@@@@@@@@@O X:;@@@@$@@@@@@$@. ",
"X2*$$@$$$@@@@@$OXX=e&$$$$$@@$@@$@@@@@@@$$$$@@ .:;$$@@$$$@$@$@@. ",
"X2-#$$$$$#$$$$$@X.=e=*&$$$$$$@$$$@@@@@@$$$%$@..:<%%$$%$$$$@$$@o ",
"X2*$$$$$$##$$$$#XX=u=&$$$$@$$$$$$$@@@$$@@$$$@ .;>$$$$$$$@$$$%%O ",
"X2=#$@@@#@@@@#%$X.*u=&&$$$@$$$$$$$@$$$$$$$&&$X :>@$@@@@@@@@@$$O ",
"X2-#$$$$$@##@@$$X.=z:=*&$$$@@$$$$$$$$$$%%===*XX:>$$@@$$@@@@@$$O ",
" 9-##$#$$#$$@@%&oX=z;&&$@$$#$$$$$$$@$$$&&****OX;,$$##$$$$$@@$&+ ",
"X9-@@@@@@@@@@$&&o *b:&&$$$@#$$%%$&$$$$$$$$%%&O :<#@#@@@@@@$@&*@ ",
"X6;$$$$$$@@@@@%&O =N,&$$$$#$#$%&&$$$$$$&%%&$%+X:4$$$$#$@@@@@$&@ ",
"Xe4%$%$$%$$$$$&*O *Z9$#$$@#$#$$&$$$$$$$&$%$%$+ ;t&$%$$%$$$$@$&@ ",
"Xuh-&$$$$$$$$$==+ *Sz-&&%%$$$$$&&%$$$$$$$&$$%@.:x;&&$$&$$$$$&=&.",
".sCh04>;=*&&&&-=# *FSzpe44>:;=;;>-*%&$&=&&&&=*X>Dz9>;=*&%%%$=-&.",
"XtVNbbxzhst04454& &ZSSCCVCbbbvxxxjue000055<,99o:SVNmbjds004244=o",
" o##########@@@@o o*-=-====-========*=*==***&&XO**&&*&&&&&&%%$@."
};
